<?xml version="1.0" standalone="no"?><!DOCTYPE svg PUBLIC "-//W3C//DTD SVG 1.1//EN" "http://www.w3.org/Graphics/SVG/1.1/DTD/svg11.dtd"><svg t="1749028005970" class="icon" viewBox="0 0 1024 1024" version="1.1" xmlns="http://www.w3.org/2000/svg" p-id="5920" xmlns:xlink="http://www.w3.org/1999/xlink" width="200" height="200"><path d="M853.546667 938.666667h-682.666667a42.666667 42.666667 0 0 1-42.666667-42.666667V128a42.666667 42.666667 0 0 1 42.666667-42.666667h682.666667a42.666667 42.666667 0 0 1 42.666666 42.666667v768a42.666667 42.666667 0 0 1-42.666666 42.666667z m-42.666667-85.333334V170.666667h-597.333333v682.666666h597.333333z m-426.666667-597.333333v85.333333a128 128 0 1 0 256 0V256h85.333334v85.333333a213.333333 213.333333 0 0 1-426.666667 0V256h85.333333z" fill="#2E3A4C" p-id="5921"></path></svg>