<?xml version="1.0" standalone="no"?><!DOCTYPE svg PUBLIC "-//W3C//DTD SVG 1.1//EN" "http://www.w3.org/Graphics/SVG/1.1/DTD/svg11.dtd"><svg t="1749098356636" class="icon" viewBox="0 0 1024 1024" version="1.1" xmlns="http://www.w3.org/2000/svg" p-id="5155" xmlns:xlink="http://www.w3.org/1999/xlink" width="200" height="200"><path d="M512 128c212.8 0 384 171.2 384 384S724.8 896 512 896 128 724.8 128 512 299.2 128 512 128m0-64C264 64 64 264 64 512s200 448 448 448 448-200 448-448S760 64 512 64z" fill="#8FA77A" p-id="5156"></path><path d="M648 331.2l44.8 44.8-136 136 136 136-44.8 44.8-136-136-136 136-44.8-44.8 136-136-136-136 44.8-44.8 136 136 136-136z" fill="#8FA77A" p-id="5157"></path></svg>